<svg id="Layer_1" data-name="Layer 1" xmlns="http://www.w3.org/2000/svg" viewBox="0 0 72.02 50.63"><defs><style>.cls-1{fill:#fce300;}.cls-2{fill:#fff;stroke:#000;stroke-miterlimit:10;stroke-width:0.25px;}</style></defs><title>logo with name-outline</title><g id="Layer_2" data-name="Layer 2"><g id="Layer_2-2" data-name="Layer 2-2"><path class="cls-1" d="M40.1,19.41a10.72,10.72,0,0,0,3.07,2.35,8.07,8.07,0,0,0,3.71.89V18.53A5.7,5.7,0,0,1,43,16.25a7.72,7.72,0,0,1-1.2-4.44,7.35,7.35,0,0,1,1.71-5,6.44,6.44,0,0,1,5.13-2H71.39V.87H47a9.21,9.21,0,0,0-3.8.79,9.49,9.49,0,0,0-3.1,2.22A10.31,10.31,0,0,0,38,7.33a12.71,12.71,0,0,0-.76,4.5A11.44,11.44,0,0,0,38,16,10.79,10.79,0,0,0,40.1,19.41Z"/><path d="M72,29.44A12.42,12.42,0,0,1,71.22,34a10.74,10.74,0,0,1-2.11,3.43A9.33,9.33,0,0,1,66,39.62a9,9,0,0,1-3.75.79H36L21,10.18a1,1,0,0,0-1.85,0L7.1,34.93A1,1,0,0,0,8,36.41H25l1,1.37H16.34v.28h9.82l.63,1H13.7v.26H26.94l.74,1.11H1a1,1,0,0,1-.9-1.48L19.19.62A1,1,0,0,1,21,.62L39,36.41H60.59a6.35,6.35,0,0,0,5.12-2,7.25,7.25,0,0,0,1.74-5,7.65,7.65,0,0,0-1.21-4.35c-.79-1.16-2.11-1.9-11.61-2V18.83c9.08-.21,10.29.11,11.46.69a10.93,10.93,0,0,1,3.06,2.32,11.61,11.61,0,0,1,2.11,3.48A12.08,12.08,0,0,1,72,29.44Z"/></g></g><path class="cls-2" d="M3.51,43.49H5.93l1.85,7H6l-.32-1.4h-2l-.38,1.43H1.65Zm1.95,4.7-.8-3.47h0l-.81,3.47Z"/><path class="cls-2" d="M8.64,43.49h2.7a3.93,3.93,0,0,1,2,.4A1.34,1.34,0,0,1,14,45.11v.28a1.33,1.33,0,0,1-.28.88,1.62,1.62,0,0,1-.87.49h0a1.43,1.43,0,0,1,1.33,1.47v.6a1.37,1.37,0,0,1-.69,1.24,3.89,3.89,0,0,1-2,.43H8.64Zm2.49,2.86a1.52,1.52,0,0,0,.8-.17.63.63,0,0,0,.27-.57v-.39a.66.66,0,0,0-.22-.55,1.13,1.13,0,0,0-.69-.17h-.86v1.86Zm.32,3.16a1.25,1.25,0,0,0,.7-.16.6.6,0,0,0,.23-.54V48.2a.76.76,0,0,0-.27-.67,1.6,1.6,0,0,0-.89-.19h-.8V49.5Z"/><path class="cls-2" d="M15.21,43.49H17v7h-1.8Z"/><path class="cls-2" d="M18.33,43.49H21a3.93,3.93,0,0,1,2,.4,1.34,1.34,0,0,1,.63,1.22v.43a1.34,1.34,0,0,1-1.17,1.38h0a1.38,1.38,0,0,1,.92.49,1.66,1.66,0,0,1,.27,1v1.23a2.9,2.9,0,0,0,0,.49.88.88,0,0,0,.16.37H22a1.13,1.13,0,0,1-.13-.32,3,3,0,0,1,0-.54V48.37a.79.79,0,0,0-.25-.67,1.49,1.49,0,0,0-.87-.19h-.65v3H18.33Zm2.44,3a1.52,1.52,0,0,0,.8-.17.63.63,0,0,0,.27-.57v-.54a.66.66,0,0,0-.22-.55,1.13,1.13,0,0,0-.69-.17h-.82v2Z"/><path class="cls-2" d="M26.24,43.49h2.42l1.85,7H28.73l-.32-1.4h-2L26,50.52H24.39Zm1.95,4.7-.8-3.47h0l-.78,3.47Z"/><path class="cls-1" d="M34.85,50.16a1.53,1.53,0,0,1-.62-1.32v-.4H35.8v.48q0,.69.86.69a1.06,1.06,0,0,0,.65-.17.63.63,0,0,0,.22-.54,1.13,1.13,0,0,0-.3-.78,4.87,4.87,0,0,0-1.12-.81,5.66,5.66,0,0,1-1.44-1.09,1.67,1.67,0,0,1-.41-1.1,1.51,1.51,0,0,1,.64-1.3,3.15,3.15,0,0,1,1.85-.46,3,3,0,0,1,1.81.46,1.54,1.54,0,0,1,.61,1.32v.29H37.59v-.36a.63.63,0,0,0-.21-.53,1,1,0,0,0-.62-.17q-.83,0-.83.68a1,1,0,0,0,.31.72,5.23,5.23,0,0,0,1.13.81,5.25,5.25,0,0,1,1.44,1.1,1.8,1.8,0,0,1,.39,1.16,1.54,1.54,0,0,1-.64,1.33,3.19,3.19,0,0,1-1.87.46A3.07,3.07,0,0,1,34.85,50.16Z"/><path class="cls-1" d="M40.16,43.45h2.46a3.22,3.22,0,0,1,1.87.44,1.5,1.5,0,0,1,.62,1.3v.7a1.5,1.5,0,0,1-.62,1.3,3.22,3.22,0,0,1-1.87.44h-.79v2.88H40.16Zm2.46,3.18a1,1,0,0,0,.61-.15.6.6,0,0,0,.2-.51v-.84a.6.6,0,0,0-.2-.51,1,1,0,0,0-.61-.15h-.79v2.17Z"/><path class="cls-1" d="M46.55,50.15a1.51,1.51,0,0,1-.65-1.31V45.13a1.51,1.51,0,0,1,.65-1.31,4,4,0,0,1,3.76,0A1.52,1.52,0,0,1,51,45.13v3.71a1.52,1.52,0,0,1-.65,1.31,4,4,0,0,1-3.76,0Zm2.75-1.24V45.06q0-.7-.86-.7t-.87.7v3.85q0,.7.87.7t.85-.7Z"/><path class="cls-1" d="M52.07,43.45h2.47a3.45,3.45,0,0,1,1.88.4A1.37,1.37,0,0,1,57,45.08v.43A1.32,1.32,0,0,1,55.9,46.9h0a1.27,1.27,0,0,1,.86.49,1.78,1.78,0,0,1,.25,1v1.24a3.13,3.13,0,0,0,0,.49.93.93,0,0,0,.15.37h-1.7a1.17,1.17,0,0,1-.12-.32,3.21,3.21,0,0,1,0-.54V48.36a.83.83,0,0,0-.24-.68,1.31,1.31,0,0,0-.81-.19h-.58v3H52.07Zm2.28,3a1.34,1.34,0,0,0,.75-.17.65.65,0,0,0,.25-.58v-.51a.68.68,0,0,0-.21-.55,1,1,0,0,0-.64-.17h-.76v2Z"/><path class="cls-1" d="M59.46,44.46H57.72v-1h5.16v1H61.13v6H59.46Z"/><path class="cls-1" d="M64,50.16a1.53,1.53,0,0,1-.62-1.32v-.4H65v.48q0,.69.86.69a1.06,1.06,0,0,0,.65-.17.63.63,0,0,0,.22-.54,1.14,1.14,0,0,0-.3-.78,4.86,4.86,0,0,0-1.12-.81,5.67,5.67,0,0,1-1.44-1.09,1.68,1.68,0,0,1-.41-1.1,1.5,1.5,0,0,1,.64-1.3,3.15,3.15,0,0,1,1.85-.46,3,3,0,0,1,1.81.46,1.55,1.55,0,0,1,.61,1.32v.29h-1.6v-.36a.63.63,0,0,0-.21-.53,1,1,0,0,0-.62-.17q-.83,0-.83.68a1,1,0,0,0,.31.72,5.22,5.22,0,0,0,1.13.81A5.24,5.24,0,0,1,68,47.66a1.8,1.8,0,0,1,.39,1.16,1.54,1.54,0,0,1-.64,1.33,3.19,3.19,0,0,1-1.87.46A3.06,3.06,0,0,1,64,50.16Z"/></svg>